#N canvas 412 141 1902 1019 12;
#X obj 547 128 nn~ magnets.ts encode;
#X obj 548 648 nn~ magnets.ts decode;
#X obj 544 966 dac~;
#X obj 546 73 osc~ 440;
#X obj 550 23 hsl 162 19 1 1000 0 0 empty empty empty -2 -10 0 12 #fcfcfc #000000 #000000 0 1;
#X obj 495 288 fader~;
#X obj 815 20 hsl 162 19 1 5000 1 0 empty empty empty -2 -10 0 12 #fcfcfc #000000 #000000 0 1;
#X floatatom 812 50 24 0 0 0 - - - 0;
#X obj 810 87 delread~ \$0-delaybuffer 1;
#X obj 801 706 delwrite~ \$0-delaybuffer 5000;
#X obj 549 697 fader~;
#X obj 1058 270 print;
#X obj 1058 220 oscparse;
#X obj 1058 168 netreceive -u -b 5556;
#X connect 0 0 5 0;
#X connect 0 1 1 5;
#X connect 0 2 1 2;
#X connect 0 3 1 6;
#X connect 0 4 1 1;
#X connect 0 5 1 4;
#X connect 0 6 1 3;
#X connect 0 7 1 7;
#X connect 1 0 9 0;
#X connect 1 0 10 0;
#X connect 3 0 0 0;
#X connect 4 0 3 0;
#X connect 5 0 1 0;
#X connect 6 0 7 0;
#X connect 6 0 8 0;
#X connect 8 0 0 0;
#X connect 10 0 2 0;
#X connect 10 0 2 1;
#X connect 12 0 11 0;
#X connect 13 0 12 0;
