#N canvas 34 -27 1920 1037 12;
#X obj 547 418 nn~ magnets.ts encode, f 55;
#X obj 548 678 nn~ magnets.ts decode, f 55;
#X obj 544 986 dac~;
#X obj 547 146 osc~ 440;
#X obj 550 106 hsl 162 19 20 5000 1 0 empty empty empty -2 -10 0 12 #fcfcfc #000000 #000000 0 1;
#X obj 791 83 hsl 162 19 1 5000 1 0 empty empty empty -2 -10 0 12 #fcfcfc #000000 #000000 0 1;
#X floatatom 788 113 24 0 0 0 - - - 0;
#X obj 787 143 delread~ \$0-delaybuffer 1;
#X obj 724 730 delwrite~ \$0-delaybuffer 5000;
#X obj 549 727 fader~;
#X obj 1058 270 print;
#X obj 1058 220 oscparse;
#X obj 1058 168 netreceive -u -b 5556;
#X obj 548 502 expr~ $v1*$f2 + $f3;
#X obj 602 541 expr~ $v1*$f2 + $f3;
#X obj 708 625 expr~ $v1*$f2 + $f3;
#X obj 655 587 expr~ $v1*$f2 + $f3;
#X obj 765 498 expr~ $v1*$f2 + $f3;
#X obj 819 537 expr~ $v1*$f2 + $f3;
#X obj 925 621 expr~ $v1*$f2 + $f3;
#X obj 872 583 expr~ $v1*$f2 + $f3;
#X obj 787 176 fader~;
#X obj 546 182 fader~;
#X obj 440 149 noise~;
#X obj 439 184 fader~;
#X floatatom 645 146 5 0 0 0 - - - 0;
#X obj 1358 329 ctlin, f 19;
#X connect 0 0 13 0;
#X connect 0 1 14 0;
#X connect 0 2 16 0;
#X connect 0 3 15 0;
#X connect 0 4 17 0;
#X connect 0 5 18 0;
#X connect 0 6 20 0;
#X connect 0 7 19 0;
#X connect 1 0 8 0;
#X connect 1 0 9 0;
#X connect 3 0 22 0;
#X connect 4 0 3 0;
#X connect 4 0 25 0;
#X connect 5 0 6 0;
#X connect 5 0 7 0;
#X connect 7 0 21 0;
#X connect 9 0 2 0;
#X connect 9 0 2 1;
#X connect 11 0 10 0;
#X connect 12 0 11 0;
#X connect 13 0 1 0;
#X connect 14 0 1 1;
#X connect 15 0 1 3;
#X connect 16 0 1 2;
#X connect 17 0 1 4;
#X connect 18 0 1 5;
#X connect 19 0 1 7;
#X connect 20 0 1 6;
#X connect 21 0 0 0;
#X connect 22 0 0 0;
#X connect 23 0 24 0;
#X connect 24 0 0 0;
