#N canvas -7 0 1416 1028 12;
#X obj 545 1018 dac~;
#X obj 547 117 osc~ 440;
#X obj 550 77 hsl 162 19 20 5000 1 0 empty empty empty -2 -10 0 12 #fcfcfc #000000 #000000 0 1;
#X obj 791 54 hsl 162 19 1 5000 1 0 empty empty empty -2 -10 0 12 #fcfcfc #000000 #000000 0 1;
#X floatatom 788 84 24 0 0 0 - - - 0;
#X obj 787 114 delread~ \$0-delaybuffer 1;
#X obj 724 730 delwrite~ \$0-delaybuffer 5000;
#X obj 550 759 fader~;
#X obj 1058 270 print;
#X obj 1058 220 oscparse;
#X obj 1058 168 netreceive -u -b 5556;
#X obj 548 502 expr~ $v1*$f2 + $f3;
#X obj 602 541 expr~ $v1*$f2 + $f3;
#X obj 708 625 expr~ $v1*$f2 + $f3;
#X obj 655 587 expr~ $v1*$f2 + $f3;
#X obj 765 498 expr~ $v1*$f2 + $f3;
#X obj 819 537 expr~ $v1*$f2 + $f3;
#X obj 925 621 expr~ $v1*$f2 + $f3;
#X obj 872 583 expr~ $v1*$f2 + $f3;
#X obj 787 197 fader~;
#X obj 546 182 fader~;
#X obj 440 120 noise~;
#X obj 439 184 fader~;
#X floatatom 645 117 5 0 0 0 - - - 0;
#X obj 1171 298 list trim;
#X floatatom 1298 405 5 0 0 0 - - - 0;
#X floatatom 1405 405 5 0 0 0 - - - 0;
#X floatatom 1513 405 5 0 0 0 - - - 0;
#X floatatom 1621 406 5 0 0 0 - - - 0;
#X obj 1257 537 route pot1 pot2 pot3 pot4 pot5 pot6 pot7 pot8, f 58;
#X obj 1188 667 route fader1 fader2 fader3 fader4 fader5 fader6 fader7 fader8, f 73;
#X floatatom 1215 715 5 0 0 0 - - - 0;
#X floatatom 1322 715 5 0 0 0 - - - 0;
#X floatatom 1430 715 5 0 0 0 - - - 0;
#X floatatom 1538 716 5 0 0 0 - - - 0;
#X floatatom 1268 715 5 0 0 0 - - - 0;
#X floatatom 1375 715 5 0 0 0 - - - 0;
#X floatatom 1483 715 5 0 0 0 - - - 0;
#X floatatom 1591 716 5 0 0 0 - - - 0;
#X floatatom 1247 585 5 0 0 0 - - - 0;
#X floatatom 1354 585 5 0 0 0 - - - 0;
#X floatatom 1462 585 5 0 0 0 - - - 0;
#X floatatom 1570 586 5 0 0 0 - - - 0;
#X floatatom 1300 585 5 0 0 0 - - - 0;
#X floatatom 1407 585 5 0 0 0 - - - 0;
#X floatatom 1515 585 5 0 0 0 - - - 0;
#X floatatom 1623 586 5 0 0 0 - - - 0;
#X obj 148 620 oscope~;
#X obj 547 418 nn~ magnets.ts encode, f 55;
#X obj 548 679 nn~ magnets.ts decode, f 55;
#X obj 1399 356 route thumbIndex thumbMiddle thumbRing thumbPinky, f 62;
#X obj 547 44 expr 20 * pow(5000 / 20 \, $f1);
#X obj 789 25 expr pow(5000 \, $f1);
#X obj 549 733 *~ 1;
#X obj 439 149 *~ 1;
#X obj 546 152 *~ 1;
#X obj 788 155 *~ 1;
#X connect 1 0 55 0;
#X connect 2 0 1 0;
#X connect 2 0 23 0;
#X connect 3 0 4 0;
#X connect 3 0 5 0;
#X connect 5 0 56 0;
#X connect 7 0 0 0;
#X connect 7 0 0 1;
#X connect 9 0 8 0;
#X connect 9 0 24 0;
#X connect 10 0 9 0;
#X connect 11 0 47 0;
#X connect 11 0 49 0;
#X connect 12 0 49 1;
#X connect 13 0 49 3;
#X connect 14 0 49 2;
#X connect 15 0 49 4;
#X connect 16 0 49 5;
#X connect 17 0 49 7;
#X connect 18 0 49 6;
#X connect 19 0 48 0;
#X connect 20 0 48 0;
#X connect 21 0 54 0;
#X connect 22 0 48 0;
#X connect 24 0 29 0;
#X connect 24 0 30 0;
#X connect 24 0 50 0;
#X connect 29 0 39 0;
#X connect 29 1 43 0;
#X connect 29 2 40 0;
#X connect 29 3 44 0;
#X connect 29 4 41 0;
#X connect 29 4 51 0;
#X connect 29 5 45 0;
#X connect 29 5 52 0;
#X connect 29 6 42 0;
#X connect 29 7 46 0;
#X connect 30 0 31 0;
#X connect 30 1 35 0;
#X connect 30 2 32 0;
#X connect 30 3 36 0;
#X connect 30 4 33 0;
#X connect 30 4 15 1;
#X connect 30 5 37 0;
#X connect 30 5 16 1;
#X connect 30 6 34 0;
#X connect 30 6 18 1;
#X connect 30 7 38 0;
#X connect 30 7 17 1;
#X connect 31 0 53 1;
#X connect 32 0 55 1;
#X connect 35 0 54 1;
#X connect 36 0 56 1;
#X connect 48 0 11 0;
#X connect 48 1 12 0;
#X connect 48 2 14 0;
#X connect 48 3 13 0;
#X connect 48 4 15 0;
#X connect 48 5 16 0;
#X connect 48 6 18 0;
#X connect 48 7 17 0;
#X connect 49 0 6 0;
#X connect 49 0 53 0;
#X connect 50 0 25 0;
#X connect 50 0 11 1;
#X connect 50 1 26 0;
#X connect 50 1 12 1;
#X connect 50 2 27 0;
#X connect 50 2 14 1;
#X connect 50 3 28 0;
#X connect 50 3 13 1;
#X connect 51 0 2 0;
#X connect 52 0 3 0;
#X connect 53 0 7 0;
#X connect 54 0 22 0;
#X connect 55 0 20 0;
#X connect 56 0 19 0;
