#N canvas 776 311 934 613 12;
#X obj 109 125 hsl 162 19 1 5000 1 0 empty empty empty -2 -10 0 12 #fcfcfc #000000 #000000 0 1;
#X floatatom 106 155 24 0 0 0 - - - 0;
#X obj 310 37 inlet~;
#X obj 332 352 outlet~;
#X obj 104 192 delread~ \$0-delaybuffer 1;
#X obj 105 80 delwrite~ \$0-delaybuffer 5000;
#X connect 0 0 1 0;
#X connect 0 0 4 0;
#X connect 2 0 5 0;
#X connect 4 0 3 0;
#X coords 0 -1 1 1 180 80 1 100 100;
