#N canvas 364 -16 1920 1037 12;
#X obj 399 63 adc~;
#X obj 58 148 oscope~;
#X obj 481 169 nn~ birds.ts encode, f 152;
#X obj 484 289 oscope~;
#X obj 631 535 oscope~;
#X obj 785 294 oscope~;
#X obj 934 535 oscope~;
#X obj 1086 294 oscope~;
#X obj 1237 535 oscope~;
#X obj 1390 294 oscope~;
#X obj 1541 535 oscope~;
#X connect 0 0 2 0;
#X connect 0 0 1 0;
#X connect 2 0 3 0;
#X connect 2 1 4 0;
#X connect 2 2 5 0;
#X connect 2 3 6 0;
#X connect 2 4 7 0;
#X connect 2 5 8 0;
#X connect 2 6 9 0;
#X connect 2 7 10 0;
