#N canvas -7 0 958 1028 12;
#X obj 539 235 inlet~;
#X obj 632 237 tgl 19 1 empty empty empty 0 -10 0 12 #fcfcfc #000000 #000000 1 1;
#X obj 632 292 metro 100;
#X obj 540 346 tabwrite~ \$0-oscope;
#X obj 112 380 s \$0-oscope;
#X msg 112 346 resize \$1;
#X obj 99 100 cnv 20 240 200 empty empty empty 20 12 0 12 #e0e0e0 #404040 0;
#N canvas 0 50 450 250 (subpatch) 0;
#X array \$0-oscope 532 float 4;
#X coords 0 1 531 -1 206 142 2 0 0;
#X restore 116 124 graph;
#X obj 120 272 hsl 200 19 100 100000 1 1 empty empty empty -2 -10 0 12 #fcfcfc #000000 #000000 4820 1;
#X connect 0 0 3 0;
#X connect 1 0 2 0;
#X connect 2 0 3 0;
#X connect 5 0 4 0;
#X connect 8 0 5 0;
#X coords 0 -1 1 1 240 200 2 100 100;
