#N canvas 780 174 958 921 12;
#X obj 539 235 inlet~;
#X obj 632 237 tgl 19 1 empty empty empty 0 -10 0 12 #fcfcfc #000000 #000000 1 1;
#X obj 632 292 metro 100;
#X obj 540 346 tabwrite~ \$0-oscope;
#X obj 112 403 s \$0-oscope;
#X obj 100 100 cnv 20 260 250 empty empty empty 20 12 0 12 #e0e0e0 #404040 0;
#N canvas 0 50 450 250 (subpatch) 0;
#X array \$0-oscope 529 float 4;
#X coords 0 1 528 -1 206 142 2 0 0;
#X restore 116 147 graph;
#X obj 120 295 hsl 200 19 100 100000 1 1 empty empty empty -2 -10 0 12 #fcfcfc #000000 #000000 4820 1;
#X msg 112 369 resize \$1;
#X obj 330 149 vsl 19 162 0.1 10000 1 0 empty empty empty 0 -9 0 12 #fcfcfc #000000 #000000 0 1;
#X obj 539 285 /~ 1;
#X floatatom 117 323 15 0 0 0 - - - 0;
#X floatatom 243 324 15 0 0 0 - - - 0;
#X floatatom 116 108 29 0 0 0 - - - 0;
#X obj 372 505 snapshot~;
#X obj 475 451 metro 10;
#X connect 0 0 10 0;
#X connect 0 0 14 0;
#X connect 1 0 2 0;
#X connect 1 0 15 0;
#X connect 2 0 3 0;
#X connect 7 0 8 0;
#X connect 7 0 11 0;
#X connect 8 0 4 0;
#X connect 9 0 10 1;
#X connect 9 0 12 0;
#X connect 10 0 3 0;
#X connect 14 0 13 0;
#X connect 15 0 14 0;
#X coords 0 -1 1 1 260 250 2 100 100;
