#N canvas 1846 366 1920 1037 12;
#X obj 716 421 sig~;
#X obj 699 357 nbx 5 17 -1e+37 1e+37 0 0 empty empty empty 0 -10 0 12 #fcfcfc #000000 #000000 0 256;
#X obj 764 578 dac~;
#X obj 771 480 nn~ magnets.ts decode, f 46;
#X obj 554 134 vsl 19 162 0 127 0 0 empty empty empty 0 -9 0 12 #fcfcfc #000000 #000000 0 1;
#X obj 172 351 oscope~;
#X connect 0 0 3 0;
#X connect 1 0 0 0;
#X connect 3 0 2 0;
#X connect 3 0 2 1;
#X connect 4 0 1 0;
